<?xml version="1.0" encoding="iso-8859-1"?>
<!-- Generator: Adobe Illustrator 19.0.0, SVG Export Plug-In . SVG Version: 6.00 Build 0)  -->
<svg version="1.1" id="Layer_1" xmlns="http://www.w3.org/2000/svg" xmlns:xlink="http://www.w3.org/1999/xlink" x="0px" y="0px"
	 viewBox="0 0 512 512" style="enable-background:new 0 0 512 512;" xml:space="preserve">
<g>
	<g>
		<path d="M385.111,0L0,385.111L126.89,512L512,126.89L385.111,0z M47.206,385.111l79.685-79.685l32.465,32.465l23.603-23.603
			l-32.465-32.465l28.042-28.042l32.465,32.465l23.603-23.603l-32.465-32.465l28.041-28.041l32.465,32.465L286.247,211
			l-32.465-32.465l28.042-28.042l32.465,32.465l23.603-23.603l-32.465-32.465l28.042-28.042l32.465,32.465l23.603-23.603
			l-32.465-32.465l28.041-28.041l79.684,79.685L126.89,464.795L47.206,385.111z"/>
	</g>
</g>
<g>
	<g>
		<path d="M158.422,353.578c-17.136-17.135-45.016-17.135-62.153,0c-17.136,17.136-17.136,45.018,0,62.153
			c8.567,8.568,19.822,12.852,31.077,12.852c11.255,0,22.509-4.284,31.077-12.852C175.557,398.597,175.557,370.715,158.422,353.578z
			 M134.819,392.13c-4.121,4.121-10.827,4.121-14.95,0c-4.122-4.121-4.121-10.827,0-14.948c2.061-2.061,4.768-3.091,7.475-3.091
			c2.707,0,5.414,1.03,7.475,3.091C138.94,381.303,138.94,388.009,134.819,392.13z"/>
	</g>
</g>
<g>
</g>
<g>
</g>
<g>
</g>
<g>
</g>
<g>
</g>
<g>
</g>
<g>
</g>
<g>
</g>
<g>
</g>
<g>
</g>
<g>
</g>
<g>
</g>
<g>
</g>
<g>
</g>
<g>
</g>
</svg>
