<?xml version="1.0" encoding="iso-8859-1"?>
<!-- Generator: Adobe Illustrator 19.0.0, SVG Export Plug-In . SVG Version: 6.00 Build 0)  -->
<svg xmlns="http://www.w3.org/2000/svg" xmlns:xlink="http://www.w3.org/1999/xlink" version="1.1" id="Capa_1" x="0px" y="0px" viewBox="0 0 58 58" style="enable-background:new 0 0 58 58;" xml:space="preserve" width="512px" height="512px">
<g>
	<path d="M56,13.5c-0.737,0-1.375,0.405-1.722,1H53v-1.003c0-2.204-1.793-3.997-3.997-3.997h-6.006C40.793,9.5,39,11.293,39,13.497   V14.5h-2v-1.003c0-2.204-1.794-3.997-4-3.997H9c-2.206,0-4,1.793-4,3.997V14.5H3.722c-0.347-0.595-0.985-1-1.722-1   c-1.102,0-2,0.897-2,2s0.897,2,2,2c0.737,0,1.375-0.405,1.722-1H5v28.003C5,46.707,6.794,48.5,9,48.5h24c2.206,0,4-1.793,4-3.997   V16.5h2v28.003c0,2.204,1.793,3.997,3.997,3.997h6.006c2.204,0,3.997-1.793,3.997-3.997V16.5h1.278c0.347,0.595,0.985,1,1.722,1   c1.103,0,2-0.897,2-2S57.103,13.5,56,13.5z M35,44.503c0,1.101-0.897,1.997-2,1.997H9c-1.102,0-2-0.896-2-1.997V16.5v-2v-1.003   C7,12.396,7.898,11.5,9,11.5h24c1.103,0,2,0.896,2,1.997V14.5v2V44.503z M51,44.503c0,1.101-0.896,1.997-1.997,1.997h-6.006   C41.896,46.5,41,45.604,41,44.503V16.5v-2v-1.003c0-1.101,0.896-1.997,1.997-1.997h6.006c1.101,0,1.997,0.896,1.997,1.997V14.5v2   V44.503z" fill="#23bad5"/>
</g>
<g>
</g>
<g>
</g>
<g>
</g>
<g>
</g>
<g>
</g>
<g>
</g>
<g>
</g>
<g>
</g>
<g>
</g>
<g>
</g>
<g>
</g>
<g>
</g>
<g>
</g>
<g>
</g>
<g>
</g>
</svg>
